<svg xmlns="http://www.w3.org/2000/svg" viewBox="0 0 64 64">
  <rect width="64" height="64" rx="14" fill="#10100f"/>
  <g fill="none" stroke="#dc2320" stroke-width="4.8" stroke-linecap="round" stroke-linejoin="round">
    <ellipse cx="32" cy="38" rx="15" ry="9"/>
    <path d="M25 29l-4-9"/>
    <path d="M39 29l4-9"/>
    <circle cx="20" cy="18" r="2.8" fill="#dc2320"/>
    <circle cx="44" cy="18" r="2.8" fill="#dc2320"/>
    <path d="M18 35c-7-3-10-8-9-13 5 1 9 4 11 10"/>
    <path d="M46 35c7-3 10-8 9-13-5 1-9 4-11 10"/>
    <path d="M21 44l-9 7"/>
    <path d="M28 47l-5 9"/>
    <path d="M36 47l5 9"/>
    <path d="M43 44l9 7"/>
  </g>
  <path d="M20 40c7 5 17 5 24 0" fill="none" stroke="#f5eee2" stroke-width="2.4" stroke-linecap="round"/>
</svg>
